<svg id="Layer_3" enable-background="new 0 0 64 64" height="512" viewBox="0 0 64 64" width="512" xmlns="http://www.w3.org/2000/svg"><path d="m12 43v-3.586l2.293 2.293 1.414-1.414-3.707-3.707v-2.586h2.586l3.707 3.707 1.414-1.414-2.293-2.293h3.586v-2h-3.586l2.293-2.293-1.414-1.414-3.707 3.707h-2.586v-2.586l3.707-3.707-1.414-1.414-2.293 2.293v-3.586h-2v3.586l-2.293-2.293-1.414 1.414 3.707 3.707v2.586h-2.586l-3.707-3.707-1.414 1.414 2.293 2.293h-3.586v2h3.586l-2.293 2.293 1.414 1.414 3.707-3.707h2.586v2.586l-3.707 3.707 1.414 1.414 2.293-2.293v3.586z"/><path d="m29.707 49.707-1.414-1.414-3.707 3.707h-2.586v-2.586l3.707-3.707-1.414-1.414-2.293 2.293v-3.586h-2v3.586l-2.293-2.293-1.414 1.414 3.707 3.707v2.586h-2.586l-3.707-3.707-1.414 1.414 2.293 2.293h-3.586v2h3.586l-2.293 2.293 1.414 1.414 3.707-3.707h2.586v2.586l-3.707 3.707 1.414 1.414 2.293-2.293v3.586h2v-3.586l2.293 2.293 1.414-1.414-3.707-3.707v-2.586h2.586l3.707 3.707 1.414-1.414-2.293-2.293h3.586v-2h-3.586z"/><path d="m47.659 20.975c1.815-.121 3.564-.735 5.057-1.777 1.118 1.143 2.658 1.802 4.284 1.802 3.309 0 6-2.691 6-6 0-3.375-2.805-6.117-6.2-5.997-.928-4.628-4.975-8.003-9.8-8.003-3.95 0-7.521 2.374-9.116 5.907-1.654-1.201-3.686-1.907-5.884-1.907-2.35 0-4.511.805-6.222 2.161-.834-3.526-4.001-6.161-7.778-6.161-4.411 0-8 3.589-8 8 0 3.867 2.758 7.101 6.41 7.84-.261.672-.41 1.398-.41 2.16 0 3.309 2.691 6 6 6 1.626 0 3.166-.659 4.284-1.802 1.673 1.168 3.668 1.802 5.716 1.802s4.043-.634 5.716-1.802c1.118 1.143 2.658 1.802 4.284 1.802 2.616 0 4.84-1.685 5.659-4.025zm-.659-17.975c4.136 0 7.558 3.1 7.96 7.21.028.284.175.542.405.71s.522.23.8.171c2.568-.552 4.835 1.431 4.835 3.909 0 2.206-1.794 4-4 4-1.322 0-2.557-.654-3.305-1.75-.161-.235-.414-.391-.696-.428-.285-.035-.567.048-.783.234-1.199 1.033-2.67 1.676-4.22 1.873-.04-3.343-2.839-6.05-6.197-5.926-.357-1.779-1.177-3.369-2.323-4.658 1.119-3.161 4.141-5.345 7.524-5.345zm-35 6c0-3.309 2.691-6 6-6 3.304 0 5.992 2.684 5.999 5.987-.871 1.162-1.5 2.522-1.799 4.016-1.839-.065-3.5.714-4.641 1.974-3.103-.227-5.559-2.817-5.559-5.977zm26.695 12.25c-.161-.235-.414-.391-.696-.428-.043-.005-.087-.008-.13-.008-.238 0-.47.085-.653.243-1.454 1.253-3.306 1.943-5.216 1.943s-3.762-.69-5.216-1.943c-.215-.186-.497-.27-.783-.234-.282.037-.536.193-.696.428-.748 1.095-1.983 1.749-3.305 1.749-2.206 0-4-1.794-4-4 0-2.478 2.263-4.462 4.835-3.909.279.06.57-.002.8-.171.23-.168.377-.426.405-.71.402-4.11 3.824-7.21 7.96-7.21s7.558 3.1 7.96 7.21c.028.284.175.542.405.71.23.169.522.23.8.171 2.569-.554 4.835 1.431 4.835 3.909 0 2.206-1.794 4-4 4-1.322 0-2.557-.654-3.305-1.75z"/><path d="m52 57v2c3.86 0 7-3.14 7-7h-2c0 2.757-2.243 5-5 5z"/><path d="m53 46v-19h-2v18.071c-3.388.487-6 3.408-6 6.929h2c0-2.757 2.243-5 5-5 .552 0 1-.448 1-1z"/><path d="m58 42.791v-13.791c0-3.309-2.691-6-6-6s-6 2.691-6 6v13.791c-3.417 2.231-5.346 6.214-4.946 10.311.5 5.129 4.578 9.263 9.695 9.83.409.045.817.067 1.225.067 2.709 0 5.339-.99 7.362-2.801 2.328-2.086 3.664-5.074 3.664-8.198 0-3.71-1.902-7.187-5-9.209zm.001 15.916c-1.932 1.73-4.427 2.529-7.032 2.235-4.182-.462-7.515-3.842-7.924-8.036-.348-3.567 1.359-6.898 4.457-8.693.308-.178.498-.507.498-.864v-14.349c0-2.206 1.794-4 4-4s4 1.794 4 4v14.349c0 .357.19.687.499.865 2.776 1.608 4.501 4.592 4.501 7.786 0 2.556-1.093 5-2.999 6.707z"/><path d="m40 27h4v2h-4z"/><path d="m40 31h4v2h-4z"/><path d="m40 35h4v2h-4z"/><path d="m40 39h4v2h-4z"/></svg>