<svg id="Capa_1" enable-background="new 0 0 512 512" height="512" viewBox="0 0 512 512" width="512" xmlns="http://www.w3.org/2000/svg"><g><path d="m485.043 178.344c-13.877-13.626-31.311-22.327-50.122-25.208-6.719-43.03-44.035-76.056-88.921-76.056-16.901 0-33.14 4.673-47.219 13.407-8.722-14.6-20.455-27.205-34.587-37.043-20.075-13.977-43.656-21.364-68.194-21.364-66.168 0-120 53.832-120 120 0 .411.004.82.012 1.226-18.402 3.042-35.44 11.67-49.054 25.038-17.384 17.069-26.958 39.705-26.958 63.736s9.574 46.667 26.958 63.736c17.248 16.937 39.992 26.264 64.042 26.264h23.234l-15.108 39.66 28.034 10.68 19.177-50.34h57.897l-15.108 39.66 28.034 10.68 19.177-50.34h57.897l-15.108 39.66 28.034 10.68 19.177-50.34h57.897l-15.108 39.66 28.034 10.68 19.177-50.34h4.663c24.05 0 46.794-9.327 64.043-26.264 17.383-17.069 26.957-39.704 26.957-63.736s-9.574-46.667-26.957-63.736zm-64.043 123.736h-330c-33.636 0-61-26.916-61-60s27.364-60 61-60h18.831l-2.687-18.622c-.588-4.029-1.144-7.834-1.144-11.378 0-49.626 40.374-90 90-90 37.062 0 69.855 22.391 83.543 57.042l8.315 21.049 16.146-15.858c11.316-11.113 26.23-17.233 41.996-17.233 33.084 0 60 26.916 60 60v15h15c33.636 0 61 26.916 61 60s-27.364 60-61 60z"/><path d="m112.741 425.83h72.232v30h-72.232z" transform="matrix(.356 -.935 .935 .356 -316.086 423.002)"/><path d="m202.741 425.83h72.232v30h-72.232z" transform="matrix(.356 -.935 .935 .356 -258.125 507.106)"/><path d="m292.741 425.83h72.232v30h-72.232z" transform="matrix(.356 -.935 .935 .356 -200.165 591.21)"/></g></svg>